# xmcd CD database file
# Copyright (C) 1997 Ti Kan
# 
# Track frame offsets:
#     150
#     13197
#     36302
#     48735
#     63927
#     77225
#     95887
#     107720
#     121537
#     141445
#     152252
#     168945
# 
# Disc length: 2423 seconds
# 
# Revision: 1
# Processed by: cddbd v1.4b41PL1 Copyright (c) Steve Scherf et al.
# Submitted via: DiscPlay 4.0.4
# 
DISCID=9c09750c
DTITLE=Various Artist - Happy Holidays, Vol. 25 Disc Two
DYEAR=1900
DGENRE=
TTITLE0=Christmas Is Here Again - Roger Whittaker
TTITLE1=Medley: Here We Come A-Caroling (Wassail Song) - O Christmas Tree (O
TTITLE1=Tannenbaum) - I Saw Three Ships - Arthur Fielder and his Orchestra 
TTITLE1=and Chorus
TTITLE2=Do You Hear What I Hear - Bing Crosby
TTITLE3=The Little Drummer Boy - The Harry Simeone Chorale
TTITLE4=Joy To The World - Julie Andrews with the Orchestra
TTITLE5=O Holy Night
TTITLE6=Silver Bells - Kate Smith
TTITLE7=Feliz Navidad - Jose Feliciano
TTITLE8=Mary's Boy Child - Harry Belafonte
TTITLE9=Ave Maria - Placido DOmingo, Tenor, The Vienna Choir Boys-Vienna Sym
TTITLE9=phony
TTITLE10=Have Yourself A Merry Little Christmas - James Galway with the Roya
TTITLE10=l Philharmonic Orchestra and BBC Singers
TTITLE11=Silent Night - Ed Ames
EXTD=
EXTT0=
EXTT1=
EXTT2=
EXTT3=
EXTT4=
EXTT5=
EXTT6=
EXTT7=
EXTT8=
EXTT9=
EXTT10=
EXTT11=
PLAYORDER=
